#N canvas 842 513 747 386 10;
#X declare -path osc -path net;
#X obj 11 324 j.minuit_device;
#X obj 11 304 tgl 15 0 empty empty empty 17 7 0 10 -262144 -1 -1 0
1;
#X obj 164 105 j.parameter frequency;
#X obj 167 196 j.parameter gain;
#X floatatom 167 216 5 0 0 0 - - -, f 5;
#X floatatom 167 179 5 0 0 0 - - -, f 5;
#X floatatom 164 125 5 0 0 0 - - -, f 5;
#X floatatom 164 88 5 0 0 0 - - -, f 5;
#X msg 330 237 /Main:Next;
#X msg 434 264 connect localhost 13579;
#X obj 344 353 tgl 15 0 empty empty empty 17 7 0 10 -262144 -1 -1 0
1;
#X obj 419 120 declare -path osc -path net;
#X obj 330 266 mrpeach/packOSC;
#X obj 344 320 mrpeach/udpsend;
#X connect 1 0 0 0;
#X connect 2 0 6 0;
#X connect 3 0 4 0;
#X connect 5 0 3 0;
#X connect 7 0 2 0;
#X connect 8 0 12 0;
#X connect 9 0 13 0;
#X connect 12 0 13 0;
#X connect 13 0 10 0;
