#N canvas 629 428 914 303 10;
#X obj 65 258 j.modular Minuit;
#X obj 280 15 loadbang;
#X obj 65 19 inlet;
#X msg 65 160 protocol/setup port \$1;
#X msg 138 180 protocol/setup ip \$1;
#X msg 285 156 protocol/setup port \$1;
#X msg 359 176 protocol/setup ip \$1;
#X msg 212 200 name \$1;
#X obj 285 258 j.modular i-score Minuit;
#X msg 432 196 name \$1;
#X msg 280 36 local/port 9998 \, local/name newDevice \, local/ip 127.0.0.1
\, distant/name i-score \, distant/port 13579 \, distant/ip 127.0.0.1
;
#X obj 65 101 route local/port local/ip local/name distant/port distant/ip
distant/name, f 74;
#X msg 506 128 activity \$1;
#X obj 554 220 j.receive /:activity/in;
#X obj 554 240 print activity/in;
#X obj 701 219 j.receive /:activity/out;
#X obj 701 239 print activity/out;
#X obj 212 121 symbol;
#X obj 432 121 symbol;
#X floatatom 297 134 5 0 0 0 - - -, f 5;
#X obj 359 127 symbol;
#X obj 138 123 symbol;
#X connect 1 0 10 0;
#X connect 2 0 11 0;
#X connect 3 0 0 0;
#X connect 4 0 0 0;
#X connect 5 0 8 0;
#X connect 6 0 8 0;
#X connect 7 0 0 0;
#X connect 9 0 8 0;
#X connect 10 0 11 0;
#X connect 11 0 3 0;
#X connect 11 1 21 0;
#X connect 11 2 17 0;
#X connect 11 3 5 0;
#X connect 11 3 19 0;
#X connect 11 4 20 0;
#X connect 11 5 18 0;
#X connect 11 6 12 0;
#X connect 12 0 0 0;
#X connect 13 0 14 0;
#X connect 15 0 16 0;
#X connect 17 0 7 0;
#X connect 18 0 9 0;
#X connect 20 0 6 0;
#X connect 21 0 4 0;
