#N canvas 11 630 868 258 10;
#X obj 651 105 j.parameter freq @type decimal;
#X floatatom 615 106 5 0 0 0 - - -, f 5;
#X floatatom 615 126 5 0 0 0 - - -, f 5;
#X obj 651 125 j.parameter gain @type decimal;
#X floatatom 614 166 5 0 0 0 - - -, f 5;
#X obj 30 99 loadbang;
#X obj 365 99 loadbang;
#X obj 30 207 print master;
#X obj 365 207 print remote;
#X obj 30 185 j.modular Minuit @name pd_remote-model;
#X obj 365 185 j.modular pd_remote-view Minuit;
#X obj 651 165 j.remote pd_remote-model:/freq;
#X msg 365 120 activity 1 \, protocol/setup ip localhost \, protocol/setup
port 9999 \, name pd_remote-view, f 28;
#X msg 30 120 activity 1 \, protocol/setup ip localhost \, protocol/setup
port 10000 \, name pd_remote-model, f 28;
#X text 364 16 You should run 04-pd_remote-view.pd patch in another
Pd instance to see how communication works.;
#X connect 0 0 1 0;
#X connect 1 0 0 0;
#X connect 2 0 3 0;
#X connect 3 0 2 0;
#X connect 4 0 11 0;
#X connect 5 0 13 0;
#X connect 6 0 12 0;
#X connect 9 0 7 0;
#X connect 10 0 8 0;
#X connect 11 0 4 0;
#X connect 12 0 10 0;
#X connect 13 0 9 0;
