#N canvas 14 616 868 176 10;
#X obj 661 34 j.parameter freq @type decimal;
#X floatatom 625 35 5 0 0 0 - - -, f 5;
#X floatatom 625 55 5 0 0 0 - - -, f 5;
#X obj 661 54 j.parameter gain @type decimal;
#X floatatom 624 95 5 0 0 0 - - -, f 5;
#X obj 40 28 loadbang;
#X obj 375 28 loadbang;
#X obj 40 136 print master;
#X obj 375 136 print remote;
#X obj 40 114 j.modular Minuit @name pd_remote-model;
#X obj 375 114 j.modular pd_remote-view Minuit;
#X msg 242 82 namespace/mirror;
#X obj 661 94 j.remote pd_remote-model:/freq;
#X msg 242 42 namespace/build;
#X msg 375 49 activity 1 \, protocol/setup ip localhost \, protocol/setup
port 9999 \, name pd_remote-view, f 28;
#X msg 40 49 activity 1 \, protocol/setup ip localhost \, protocol/setup
port 10000 \, name pd_remote-model, f 28;
#X connect 0 0 1 0;
#X connect 1 0 0 0;
#X connect 2 0 3 0;
#X connect 3 0 2 0;
#X connect 4 0 12 0;
#X connect 5 0 15 0;
#X connect 6 0 14 0;
#X connect 9 0 7 0;
#X connect 10 0 8 0;
#X connect 11 0 9 0;
#X connect 11 0 10 0;
#X connect 12 0 4 0;
#X connect 13 0 9 0;
#X connect 13 0 10 0;
#X connect 14 0 10 0;
#X connect 15 0 9 0;
