#N canvas 285 365 450 300 10;
#X obj 183 123 j.init;
#X obj 10 109 j.model;
#X msg 10 77 init;
#X msg 183 167 start;
#X msg 227 167 end;
#N canvas 1 96 450 300 submodel 1;
#X restore 26 215 pd submodel;
#X obj 288 123 j.init;
#X msg 288 167 start;
#X msg 332 167 end;
#X obj 288 213 print SUBLEVEL;
#X obj 183 213 print ROOT;
#X connect 0 0 3 0;
#X connect 0 1 4 0;
#X connect 2 0 1 0;
#X connect 3 0 10 0;
#X connect 4 0 10 0;
#X connect 6 0 7 0;
#X connect 6 1 8 0;
#X connect 7 0 9 0;
#X connect 8 0 9 0;
