#N canvas 651 502 415 137 10;
#N canvas 111 665 520 336 Basic 0;
#X obj 203 136 j.in mySignal;
#X obj 203 58 inlet;
#X msg 264 88 bypass \$1;
#X obj 264 69 tgl 15 0 empty empty empty 17 7 0 10 -262144 -1 -1 0
1;
#X obj 344 69 tgl 15 0 empty empty empty 17 7 0 10 -262144 -1 -1 0
1;
#X msg 344 88 mute \$1;
#N canvas 1 112 450 300 processing 0;
#X obj 195 108 inlet;
#X obj 195 160 * 2;
#X obj 195 182 - 127;
#X obj 195 214 outlet;
#X connect 0 0 1 0;
#X connect 1 0 2 0;
#X connect 2 0 3 0;
#X restore 203 163 pd processing;
#X obj 203 189 j.out mySignal;
#X floatatom 159 234 5 0 0 0 - - -, f 5;
#X obj 203 267 outlet;
#X floatatom 153 77 5 0 0 0 - - -, f 5;
#X floatatom 143 155 5 0 0 0 - - -, f 5;
#X obj 305 164 print;
#X connect 0 0 6 0;
#X connect 0 0 11 0;
#X connect 0 1 12 0;
#X connect 1 0 0 0;
#X connect 2 0 0 0;
#X connect 3 0 2 0;
#X connect 4 0 5 0;
#X connect 5 0 0 0;
#X connect 6 0 7 0;
#X connect 7 0 9 0;
#X connect 7 0 8 0;
#X connect 10 0 0 0;
#X restore 44 47 pd Basic;
#N canvas 482 180 450 300 Distant 0;
#X obj 104 107 j.send data/in.mySignal;
#X floatatom 104 87 5 0 0 0 - - -, f 5;
#X floatatom 104 159 5 0 0 0 - - -, f 5;
#X obj 104 137 j.receive data/out.mySignal;
#X text 205 217 TODO doens't work yet;
#X connect 1 0 0 0;
#X connect 3 0 2 0;
#X restore 44 67 pd Distant Access;
