#N canvas 551 508 672 379 10;
#N canvas 1 96 450 300 ramp 0;
#X obj 112 40 inlet;
#X obj 112 62 metro 3000;
#X msg 112 84 0 \, 1 3000;
#X obj 112 106 line;
#X obj 112 128 outlet;
#X connect 0 0 1 0;
#X connect 1 0 2 0;
#X connect 2 0 3 0;
#X connect 3 0 4 0;
#X restore 205 94 pd ramp;
#X floatatom 205 116 5 0 0 0 - - -, f 5;
#X obj 205 76 tgl 15 0 empty empty empty 17 7 0 10 -262144 -1 -1 1
1;
#X msg 273 73 function;
#X msg 273 94 input/min \, input/max;
#X floatatom 205 169 5 0 0 0 - - -, f 5;
#N canvas 1 160 751 300 oscillo 0;
#N canvas 0 50 450 300 (subpatch) 0;
#X array \$0-_ 300 float 2;
#X coords 0 2 300 -1 200 127 1 0 0;
#X restore 100 100 graph;
#X obj 362 104 inlet;
#X obj 478 103 inlet;
#X obj 478 190 pack f \$0;
#X obj 362 232 s \$0-_;
#X msg 478 217 \; \$2-_ resize \$1;
#X text 405 104 data;
#X obj 362 211 pack f f;
#X text 520 105 size of the array (default = 100);
#X obj 362 147 f;
#X obj 361 167 + 1;
#X obj 362 126 t b f;
#X obj 361 189 % 300;
#X connect 1 0 11 0;
#X connect 2 0 3 0;
#X connect 3 0 5 0;
#X connect 7 0 4 0;
#X connect 9 0 10 0;
#X connect 9 0 7 0;
#X connect 10 0 12 0;
#X connect 11 0 9 0;
#X connect 11 1 7 1;
#X connect 12 0 9 1;
#X coords 0 -1 1 1 200 127 2 100 100;
#X restore 205 208 pd oscillo;
#X obj 205 137 j.map @function exponential @input/min 0.25 @input/max
0.85 @input/threshold/up 0.75 @input/threshold/down 0.25;
#X text 281 50 get parameters;
#X msg 467 94 input/min \$1;
#X msg 556 94 input/max \$1;
#X floatatom 467 75 5 0 0 0 - - -, f 5;
#X floatatom 556 76 5 0 0 0 - - -, f 5;
#X msg 492 25 function tanh;
#X msg 471 5 function exponential;
#X obj 556 176 print dumpout;
#X connect 0 0 1 0;
#X connect 1 0 7 0;
#X connect 2 0 0 0;
#X connect 3 0 7 0;
#X connect 4 0 7 0;
#X connect 5 0 6 0;
#X connect 7 0 5 0;
#X connect 7 1 15 0;
#X connect 9 0 7 0;
#X connect 10 0 7 0;
#X connect 11 0 9 0;
#X connect 12 0 10 0;
#X connect 13 0 7 0;
#X connect 14 0 7 0;
