#N canvas 854 462 533 467 10;
#N canvas 282 462 547 454 Basic 0;
#X obj 54 120 j.model @tag control @description this model doesn t
do anything;
#X floatatom 116 69 5 0 0 0 - - -, f 5;
#X msg 116 88 anotherParameter \$1;
#X msg 54 88 freq \$1;
#X floatatom 54 64 5 0 0 0 - - -, f 5;
#X floatatom 47 310 5 0 0 0 - - -, f 5;
#X obj 47 275 j.parameter freq @type float @description Frequency of
my patch;
#X floatatom 135 373 5 0 0 0 - - -, f 5;
#X obj 135 338 j.parameter anotherParameter @type float @description
A parameter for demo purpose;
#X connect 1 0 2 0;
#X connect 2 0 0 0;
#X connect 3 0 0 0;
#X connect 4 0 3 0;
#X connect 6 0 5 0;
#X connect 8 0 7 0;
#X restore 170 190 pd Basic;
#X text 49 49 j.model;
#X text 50 74 Declare patcher as model;
#X text 49 97 [j.model] is the central brain in a jamoma model. It
parses input \, distribute messages to parameters \, generates documentation
\, etc.;
#N canvas 694 306 1069 480 Priorities 0;
#N canvas 1 160 450 300 mySimpleModel 0;
#X obj 117 36 inlet;
#X obj 117 84 j.model @priority 1;
#X obj 117 146 outlet;
#X obj 119 214 j.parameter myParameter @type integer @default 10;
#X floatatom 119 236 5 0 0 0 - - -, f 5;
#X connect 0 0 1 0;
#X connect 1 0 2 0;
#X connect 3 0 4 0;
#X restore 66 233 pd mySimpleModel @priority 1;
#X msg 66 203 myParameter \$1;
#X floatatom 66 185 5 0 0 0 - - -, f 5;
#X obj 66 295 print FIRST;
#X msg 256 203 myParameter \$1;
#X floatatom 256 185 5 0 0 0 - - -, f 5;
#N canvas 1 160 450 300 anotherModel 0;
#X obj 117 36 inlet;
#X obj 117 84 j.model @priority 1;
#X obj 117 146 outlet;
#X obj 119 214 j.parameter myParameter @type integer @default 10;
#X floatatom 119 236 5 0 0 0 - - -, f 5;
#X connect 0 0 1 0;
#X connect 1 0 2 0;
#X connect 3 0 4 0;
#X restore 256 233 pd anotherModel @priority 1;
#X obj 256 295 print SECOND;
#X obj 552 365 j.cue;
#X msg 552 150 namespace/select /mySimpleModel /anotherModel;
#X msg 577 221 new Another;
#X msg 568 199 new INIT;
#X msg 588 288 recall INIT;
#X msg 596 311 recall Another;
#X text 535 128 1 Set j.cue to store state of both models in the patch
;
#X text 650 205 2 Send some values to parameters inside models \, then
store state as a cue.;
#X text 90 108 One can devine priorities in which model state will
ve stored/recall by j.cue \, for example.;
#X obj 105 360 j.remote /anotherModel/myParameter;
#X floatatom 65 361 5 0 0 0 - - -, f 5;
#X floatatom 64 398 5 0 0 0 - - -, f 5;
#X obj 104 397 j.remote /mySimpleModel/myParameter;
#X connect 0 0 3 0;
#X connect 1 0 0 0;
#X connect 2 0 1 0;
#X connect 4 0 6 0;
#X connect 5 0 4 0;
#X connect 6 0 7 0;
#X connect 9 0 8 0;
#X connect 10 0 8 0;
#X connect 11 0 8 0;
#X connect 12 0 8 0;
#X connect 13 0 8 0;
#X connect 17 0 18 0;
#X connect 18 0 17 0;
#X connect 19 0 20 0;
#X connect 20 0 19 0;
#X restore 170 220 pd Priorities;
#N canvas 612 535 809 300 Aliases 0;
#X obj 11 103 j.model;
#X text 4 12 1 Set an alias name;
#X msg 11 47 alias /anotherName;
#X msg 21 67 alias /yetAnotherName;
#X msg 172 55 alias/remove;
#X obj 15 160 j.message myMessage @type string;
#X obj 274 80 j.send /anotherName/myMessage;
#X msg 274 53 yes;
#X msg 305 52 no;
#X msg 274 113 yes;
#X msg 305 112 no;
#X msg 274 173 yes;
#X msg 305 172 no;
#X obj 274 140 j.send /yetAnotherName/myMessage;
#X obj 274 200 j.send /Aliases/myMessage;
#X text 338 171 The initial address of the model remains accessible.
;
#X text 273 30 2 Messages can be addressed using aliases.;
#X obj 15 190 bng 15 250 50 0 empty empty empty 17 7 0 10 -262144 -1
-1;
#X obj 49 187 list prepend set;
#X obj 49 209 list trim;
#X msg 49 231 yes;
#X msg 343 53 loadbang;
#X connect 2 0 0 0;
#X connect 3 0 0 0;
#X connect 4 0 0 0;
#X connect 5 0 17 0;
#X connect 5 0 18 0;
#X connect 7 0 6 0;
#X connect 8 0 6 0;
#X connect 9 0 13 0;
#X connect 10 0 13 0;
#X connect 11 0 14 0;
#X connect 12 0 14 0;
#X connect 18 0 19 0;
#X connect 19 0 20 0;
#X connect 21 0 6 0;
#X restore 170 250 pd Aliases;
#N canvas 1 112 450 300 Amenities 0;
#X text 203 133 TODO;
#X restore 170 280 pd Amenities;
#N canvas 601 223 828 719 Presets 0;
#X msg 93 35 presets:new default;
#X msg 93 65 presets:new standard setup;
#X msg 93 95 presets:new another case;
#X msg 104 188 preset default;
#X msg 104 218 preset standard setup;
#X msg 104 288 preset:read;
#X msg 104 328 preset:write;
#X msg 109 408 preset:interpolate 1 2 \$1;
#X obj 112 385 hsl 128 15 0 1 0 0 empty empty empty -2 -8 0 10 -262144
-1 -1 0 1;
#X msg 163 517 preset:mix 1 \$1 2 \$2 3 \$3;
#X obj 19 588 j.model;
#X obj 437 144 j.parameter myParameter @type decimal @priority 1;
#X floatatom 437 125 5 0 0 0 - - -, f 5;
#X floatatom 437 166 5 0 0 0 - - -, f 5;
#X floatatom 437 235 5 0 0 0 - - -, f 5;
#X floatatom 437 276 5 0 0 0 - - -, f 5;
#X obj 437 254 j.parameter myIndex @type integer @priority 2;
#X obj 437 354 j.parameter myLabel @type string @priority 2;
#X msg 437 331 foo;
#X msg 471 332 bar;
#X obj 437 374 symbol;
#X symbolatom 437 396 10 0 0 0 - - -, f 10;
#X connect 0 0 10 0;
#X connect 1 0 10 0;
#X connect 2 0 10 0;
#X connect 3 0 10 0;
#X connect 4 0 10 0;
#X connect 5 0 10 0;
#X connect 6 0 10 0;
#X connect 7 0 10 0;
#X connect 8 0 7 0;
#X connect 9 0 10 0;
#X connect 11 0 13 0;
#X connect 12 0 11 0;
#X connect 14 0 16 0;
#X connect 16 0 15 0;
#X connect 17 0 20 0;
#X connect 18 0 17 0;
#X connect 19 0 17 0;
#X connect 20 0 21 0;
#X restore 170 310 pd Presets;
#X floatatom 46 435 5 0 0 0 - - -, f 5;
#X obj 46 400 j.remote /Basic/freq;
#X floatatom 46 369 5 0 0 0 - - -, f 5;
#X text 177 397 you can use a j.remote outside of a model with an absolute
address;
#X connect 9 0 8 0;
#X connect 10 0 9 0;
