#N canvas 854 421 523 217 10;
#N canvas 1 128 634 423 Basic 0;
#X floatatom 108 137 5 0 0 0 - - -, f 5;
#X floatatom 108 203 5 0 0 0 - - -, f 5;
#X floatatom 283 197 5 0 0 0 - - -, f 5;
#X floatatom 459 138 5 0 0 0 - - -, f 5;
#X obj 27 289 j.receive track.1/gain;
#X floatatom 27 311 5 0 0 0 - - -, f 5;
#X floatatom 169 311 5 0 0 0 - - -, f 5;
#X floatatom 311 311 5 0 0 0 - - -, f 5;
#X floatatom 453 311 5 0 0 0 - - -, f 5;
#X obj 169 289 j.receive track.2/gain;
#X obj 311 289 j.receive track.3/gain;
#X obj 453 289 j.receive track.4/gain;
#X obj 108 161 j.parameter_array track.[4]/gain @type decimal @description
"An array of tracks gain";
#X msg 495 136 *;
#X obj 459 48 vradio 15 1 0 4 empty empty empty 0 -8 0 10 -262144 -1
-1 2;
#X obj 459 113 + 1;
#X connect 0 0 12 0;
#X connect 3 0 12 1;
#X connect 4 0 5 0;
#X connect 9 0 6 0;
#X connect 10 0 7 0;
#X connect 11 0 8 0;
#X connect 12 0 1 0;
#X connect 12 1 2 0;
#X connect 13 0 12 1;
#X connect 14 0 15 0;
#X connect 15 0 3 0;
#X restore 71 58 pd Basic;
#N canvas 763 660 793 300 Dynamic 0;
#X obj 61 136 j.parameter_array items.[6] @type decimal @description
Hello;
#X msg 61 94 address objects.[3];
#X obj 156 271 j.model;
#X obj 562 143 j.namespace;
#X obj 562 58 loadbang;
#X msg 562 80 /Dynamic_Instances;
#X obj 562 177 print;
#X msg 38 67 array/resize \$1;
#X floatatom 38 51 5 1 1000 0 - - -, f 5;
#X connect 1 0 0 0;
#X connect 3 0 6 0;
#X connect 4 0 5 0;
#X connect 5 0 3 0;
#X connect 7 0 0 0;
#X connect 8 0 7 0;
#X restore 71 81 pd Dynamic Instances;
#N canvas 254 700 980 375 Output 0;
#X obj 48 141 j.parameter_array some/stuff.[5] @format single;
#X text 45 278 In "single" mode (default) \, j.parameter_array will
output the instance whose value has been changed out of the middle
outlet then the value out of the left outlet.;
#X floatatom 322 114 5 0 0 0 - - -, f 5;
#X msg 358 112 *;
#X obj 322 8 vradio 15 1 0 5 empty empty empty 0 -8 0 10 -262144 -1
-1 3;
#X obj 322 89 + 1;
#X obj 48 226 spigot;
#X obj 81 205 == 1;
#X floatatom 48 248 5 0 0 0 - - -, f 5;
#X obj 118 226 spigot;
#X floatatom 118 248 5 0 0 0 - - -, f 5;
#X obj 188 226 spigot;
#X floatatom 188 248 5 0 0 0 - - -, f 5;
#X obj 258 226 spigot;
#X floatatom 258 248 5 0 0 0 - - -, f 5;
#X obj 151 205 == 2;
#X obj 221 205 == 3;
#X obj 291 205 == 4;
#X floatatom 48 120 5 0 0 0 - - -, f 5;
#X obj 338 226 spigot;
#X floatatom 338 248 5 0 0 0 - - -, f 5;
#X text 510 275 In "single" mode (default) \, j.parameter_array will
output the instance whose value has been changed out of the middle
outlet then the value out of the left outlet.;
#X floatatom 787 111 5 0 0 0 - - -, f 5;
#X msg 823 109 *;
#X obj 787 5 vradio 15 1 0 5 empty empty empty 0 -8 0 10 -262144 -1
-1 2;
#X obj 787 86 + 1;
#X floatatom 513 117 5 0 0 0 - - -, f 5;
#X obj 513 160 list prepend set;
#X msg 513 202 175;
#X obj 513 138 j.parameter_array other/stuff.[5] @format array;
#X obj 513 182 list trim;
#X obj 371 205 == 5;
#X connect 0 0 6 0;
#X connect 0 0 9 0;
#X connect 0 0 11 0;
#X connect 0 0 13 0;
#X connect 0 0 19 0;
#X connect 0 1 7 0;
#X connect 0 1 15 0;
#X connect 0 1 16 0;
#X connect 0 1 17 0;
#X connect 0 1 31 0;
#X connect 2 0 0 1;
#X connect 3 0 0 1;
#X connect 4 0 5 0;
#X connect 5 0 2 0;
#X connect 6 0 8 0;
#X connect 7 0 6 1;
#X connect 9 0 10 0;
#X connect 11 0 12 0;
#X connect 13 0 14 0;
#X connect 15 0 9 1;
#X connect 16 0 11 1;
#X connect 17 0 13 1;
#X connect 18 0 0 0;
#X connect 19 0 20 0;
#X connect 22 0 29 1;
#X connect 23 0 29 1;
#X connect 24 0 25 0;
#X connect 25 0 22 0;
#X connect 26 0 29 0;
#X connect 27 0 30 0;
#X connect 29 0 27 0;
#X connect 30 0 28 0;
#X connect 31 0 19 1;
#X restore 71 104 pd Output;
#N canvas 438 627 808 412 Type 0;
#X text 56 370 Don't get confused with array of parameters and the
@type array attribute;
#X obj 65 248 spigot;
#X obj 98 227 == 1;
#X obj 175 248 spigot;
#X obj 285 248 spigot;
#X obj 395 248 spigot;
#X obj 208 227 == 2;
#X obj 318 227 == 3;
#X obj 428 227 == 4;
#X obj 505 248 spigot;
#X obj 65 163 j.parameter_array split/items.[5] @type array @format
single;
#X obj 65 12 vsl 15 50 0 49 0 0 empty empty empty 0 -9 0 10 -262144
-1 -1 1700 1;
#X obj 80 12 vsl 15 50 0 49 0 0 empty empty empty 0 -9 0 10 -262144
-1 -1 4500 1;
#X obj 95 12 vsl 15 50 0 49 0 0 empty empty empty 0 -9 0 10 -262144
-1 -1 1700 1;
#X obj 110 12 vsl 15 50 0 49 0 0 empty empty empty 0 -9 0 10 -262144
-1 -1 2500 1;
#X obj 125 12 vsl 15 50 0 49 0 0 empty empty empty 0 -9 0 10 -262144
-1 -1 1600 1;
#X obj 65 141 pack 0 0 0 0 0;
#X obj 80 68 t b f;
#X obj 95 88 t b f;
#X obj 120 68 t b f;
#X obj 135 88 t b f;
#X obj 65 269 list prepend set;
#X obj 65 291 list trim;
#X msg 65 313 23 0 30 0 16;
#X obj 175 269 list prepend set;
#X obj 175 291 list trim;
#X msg 175 343 23 0 30 0 16;
#X obj 285 269 list prepend set;
#X obj 285 291 list trim;
#X msg 285 313 23 45 21 25 16;
#X obj 395 269 list prepend set;
#X obj 395 291 list trim;
#X msg 395 313 23 0 30 0 16;
#X obj 505 269 list prepend set;
#X obj 505 291 list trim;
#X msg 505 313 17 45 17 25 16;
#X floatatom 420 130 5 0 0 0 - - -, f 5;
#X msg 456 128 *;
#X obj 420 24 vradio 15 1 0 5 empty empty empty 0 -8 0 10 -262144 -1
-1 4;
#X obj 420 105 + 1;
#X obj 538 227 == 5;
#X connect 1 0 21 0;
#X connect 2 0 1 1;
#X connect 3 0 24 0;
#X connect 4 0 27 0;
#X connect 5 0 30 0;
#X connect 6 0 3 1;
#X connect 7 0 4 1;
#X connect 8 0 5 1;
#X connect 9 0 33 0;
#X connect 10 0 1 0;
#X connect 10 0 3 0;
#X connect 10 0 4 0;
#X connect 10 0 5 0;
#X connect 10 0 9 0;
#X connect 10 1 2 0;
#X connect 10 1 6 0;
#X connect 10 1 7 0;
#X connect 10 1 8 0;
#X connect 10 1 40 0;
#X connect 11 0 16 0;
#X connect 12 0 17 0;
#X connect 13 0 18 0;
#X connect 14 0 19 0;
#X connect 15 0 20 0;
#X connect 16 0 10 0;
#X connect 17 0 16 0;
#X connect 17 1 16 1;
#X connect 18 0 16 0;
#X connect 18 1 16 2;
#X connect 19 0 16 0;
#X connect 19 1 16 3;
#X connect 20 0 16 0;
#X connect 20 1 16 4;
#X connect 21 0 22 0;
#X connect 22 0 23 0;
#X connect 24 0 25 0;
#X connect 25 0 26 0;
#X connect 27 0 28 0;
#X connect 28 0 29 0;
#X connect 30 0 31 0;
#X connect 31 0 32 0;
#X connect 33 0 34 0;
#X connect 34 0 35 0;
#X connect 36 0 10 1;
#X connect 37 0 10 1;
#X connect 38 0 39 0;
#X connect 39 0 36 0;
#X connect 40 0 9 1;
#X restore 71 126 pd Type vs Array;
