#N canvas 528 423 558 300 10;
#N canvas 546 149 638 460 Basic 1;
#X floatatom 76 97 5 0 0 0 - - -, f 5;
#X floatatom 76 137 5 0 0 0 - - -, f 5;
#X floatatom 76 173 5 0 0 0 - - -, f 5;
#X floatatom 76 213 5 0 0 0 - - -, f 5;
#X obj 76 192 j.parameter banana;
#X obj 76 116 j.parameter apple;
#X obj 282 76 j.receive apple;
#X floatatom 282 99 5 0 0 0 - - -, f 5;
#X obj 325 98 list prepend set;
#X obj 325 120 list trim;
#X msg 325 141;
#X obj 379 76 loadbang;
#X floatatom 276 205 5 0 0 0 - - -, f 5;
#X obj 322 203 list prepend set;
#X obj 322 225 list trim;
#X msg 322 246;
#X obj 379 181 loadbang;
#X floatatom 280 334 5 0 0 0 - - -, f 5;
#X obj 280 296 bng 15 250 50 0 empty empty empty 17 7 0 10 -262144
-1 -1;
#X text 451 314 this doesn't work yet;
#X obj 280 314 j.receive apple @active 0;
#X obj 276 181 j.receive banana;
#X text 455 336 see #12;
#X connect 0 0 5 0;
#X connect 2 0 4 0;
#X connect 4 0 3 0;
#X connect 5 0 1 0;
#X connect 6 0 7 0;
#X connect 6 1 8 0;
#X connect 8 0 9 0;
#X connect 9 0 10 0;
#X connect 11 0 8 0;
#X connect 13 0 14 0;
#X connect 14 0 15 0;
#X connect 16 0 13 0;
#X connect 18 0 20 0;
#X connect 20 0 17 0;
#X connect 21 0 12 0;
#X connect 21 1 13 0;
#X restore 65 59 pd Basic;
