#N canvas 735 313 705 300 10;
#N canvas 105 539 886 300 Basic 0;
#X obj 61 184 j.parameter apple @type decimal @description "Apples
are green";
#X floatatom 61 166 5 0 0 0 - - -, f 5;
#X floatatom 61 218 5 0 0 0 - - -, f 5;
#X obj 466 182 j.remote apple;
#X floatatom 425 184 5 0 0 0 - - -, f 5;
#X obj 603 218 j.remote apple;
#X msg 603 241 0;
#X msg 466 232 0;
#X floatatom 493 212 5 0 0 0 - - -, f 5;
#X msg 603 182 set \$1;
#X floatatom 603 156 5 0 0 0 - - -, f 5;
#X obj 713 130 j.model;
#X connect 0 0 2 0;
#X connect 1 0 0 0;
#X connect 3 0 4 0;
#X connect 3 0 7 0;
#X connect 3 1 8 0;
#X connect 4 0 3 0;
#X connect 5 0 6 0;
#X connect 9 0 5 0;
#X connect 10 0 9 0;
#X restore 149 67 pd Basic;
#N canvas 30 301 656 286 View 0;
#X obj 173 139 list prepend set;
#X obj 173 161 list trim;
#X msg 173 183 bird 0;
#X floatatom 425 137 5 0 0 0 - - -, f 5;
#X obj 464 136 j.remote /demo/bird;
#N canvas 555 782 388 141 demo.model 0;
#X obj 20 8 inlet;
#X obj 20 30 j.model;
#X obj 20 52 outlet;
#X obj 59 72 print model_dumpout;
#X obj 121 30 j.parameter bird @type decimal;
#X floatatom 121 11 5 0 0 0 - - -, f 5;
#X floatatom 121 52 5 0 0 0 - - -, f 5;
#X connect 0 0 1 0;
#X connect 1 0 2 0;
#X connect 1 1 3 0;
#X connect 4 0 6 0;
#X connect 5 0 4 0;
#X coords 0 141 1 140 300 100 0;
#X restore 173 112 pd demo.model;
#X obj 285 136 list prepend set;
#X obj 285 158 list trim;
#X msg 285 180 bird 0;
#X msg 285 86 model:address /demo;
#X obj 285 64 loadbang;
#N canvas 968 695 422 99 demo.view 0;
#X obj 25 5 inlet;
#X obj 25 49 outlet;
#X floatatom 79 27 5 0 0 0 - - -, f 5;
#X obj 25 27 j.view;
#X obj 64 69 print view_dumpout;
#X obj 114 24 j.remote bird;
#X connect 0 0 3 0;
#X connect 2 0 5 0;
#X connect 3 0 1 0;
#X connect 3 1 4 0;
#X connect 5 0 2 0;
#X coords 0 99 1 98 300 100 0;
#X restore 285 113 pd demo.view;
#X connect 0 0 1 0;
#X connect 1 0 2 0;
#X connect 3 0 4 0;
#X connect 4 0 3 0;
#X connect 5 0 0 0;
#X connect 6 0 7 0;
#X connect 7 0 8 0;
#X connect 9 0 11 0;
#X connect 10 0 9 0;
#X connect 11 0 6 0;
#X restore 149 87 pd View and Addresses;
#N canvas 556 740 981 262 Dataspace 0;
#X obj 67 79 j.parameter freq @type decimal @dataspace time @unit Hz
;
#X floatatom 67 101 5 0 0 1 Hz - -, f 5;
#X floatatom 587 95 5 0 0 0 - - -, f 5;
#X obj 169 196 j.model;
#X floatatom 587 115 5 0 0 0 - - -, f 5;
#X floatatom 587 135 5 0 0 0 - - -, f 5;
#X obj 625 94 j.remote freq;
#X obj 625 114 j.remote freq @unit midinote;
#X obj 625 134 j.remote freq @unit cents;
#X connect 0 0 1 0;
#X connect 2 0 6 0;
#X connect 4 0 7 0;
#X connect 5 0 8 0;
#X connect 6 0 2 0;
#X connect 7 0 4 0;
#X connect 8 0 5 0;
#X restore 149 107 pd Dataspace;
#N canvas 441 497 854 187 Annotations 0;
#X obj 91 52 j.parameter filter_type @type string @description "This
parameter description will be used as annotation for GUI widgets in
the views.";
#X text 508 73 This doesn't work on Puredata since Pd doesn't have
annotations for GUI object.;
#X restore 149 127 pd Annotations;
