#N canvas 215 611 702 347 10;
#X text 44 11 j.send : send value to node;
#X text 44 31 Send value remotely to a j.parameter or other model node
;
#N canvas 551 252 450 300 View 0;
#N canvas 38 364 450 300 demo_model 0;
#X obj 130 88 inlet;
#X obj 130 110 j.model;
#X obj 130 132 outlet;
#X obj 235 146 j.parameter bird @type decimal;
#X floatatom 235 172 5 0 0 0 - - -, f 5;
#X connect 0 0 1 0;
#X connect 1 0 2 0;
#X connect 3 0 4 0;
#X restore 132 89 pd demo_model;
#N canvas 0 22 450 300 demo_model 0;
#X obj 130 88 inlet;
#X obj 130 132 outlet;
#X floatatom 235 126 5 0 0 0 - - -, f 5;
#X obj 130 110 j.view;
#X obj 237 146 j.send bird;
#X connect 0 0 3 0;
#X connect 2 0 4 0;
#X connect 3 0 1 0;
#X restore 252 89 pd demo_model;
#X text 186 128 This doesn't work yet;
#X obj 130 191 j.send /demo_model/bird;
#X floatatom 130 168 5 0 0 0 - - -, f 5;
#X connect 4 0 3 0;
#X restore 84 122 pd View and Addresses;
#N canvas 0 22 692 386 Basic 0;
#X floatatom 62 173 5 0 0 0 - - -, f 5;
#X floatatom 339 135 5 0 0 0 - - -, f 5;
#X obj 62 144 j.parameter foo @type decimal;
#X obj 340 158 j.send foo;
#X floatatom 62 233 5 0 0 0 - - -, f 5;
#X floatatom 339 195 5 0 0 0 - - -, f 5;
#X obj 62 204 j.parameter bar @type decimal;
#X obj 340 218 j.send bar;
#X floatatom 339 275 5 0 0 0 - - -, f 5;
#X obj 340 300 j.send;
#X msg 382 273 address foo;
#X msg 472 273 address bar;
#X obj 53 296 j.model;
#X text 396 302 The address can be changed on the fly;
#X connect 1 0 3 0;
#X connect 2 0 0 0;
#X connect 5 0 7 0;
#X connect 6 0 4 0;
#X connect 8 0 9 0;
#X connect 10 0 9 0;
#X connect 11 0 9 0;
#X restore 84 102 pd Basic;
#N canvas 0 23 741 352 Instances 0;
#X obj 78 97 j.parameter filter.1/freq;
#X floatatom 78 118 5 0 0 0 - - -, f 5;
#X floatatom 248 118 5 0 0 0 - - -, f 5;
#X obj 248 97 j.parameter filter.1/gain;
#X floatatom 78 178 5 0 0 0 - - -, f 5;
#X floatatom 248 178 5 0 0 0 - - -, f 5;
#X obj 78 157 j.parameter filter.2/freq;
#X obj 249 157 j.parameter filter.2/gain;
#X floatatom 78 238 5 0 0 0 - - -, f 5;
#X obj 78 218 j.parameter oscillator/freq;
#X obj 119 280 j.model;
#X obj 502 83 j.send filter.1/freq;
#X floatatom 502 64 5 0 0 0 - - -, f 5;
#X floatatom 502 104 5 0 0 0 - - -, f 5;
#X obj 502 123 j.send filter.*/freq;
#X floatatom 502 144 5 0 0 0 - - -, f 5;
#X obj 502 164 j.send */freq;
#X floatatom 502 184 5 0 0 0 - - -, f 5;
#X obj 502 204 j.send filter.1/*;
#X floatatom 502 264 5 0 0 0 - - -, f 5;
#X obj 502 284 j.send */*;
#X floatatom 502 224 5 0 0 0 - - -, f 5;
#X obj 502 244 j.send filter.*/*;
#X connect 0 0 1 0;
#X connect 3 0 2 0;
#X connect 6 0 4 0;
#X connect 7 0 5 0;
#X connect 9 0 8 0;
#X connect 12 0 11 0;
#X connect 13 0 14 0;
#X connect 15 0 16 0;
#X connect 17 0 18 0;
#X connect 19 0 20 0;
#X connect 21 0 22 0;
#X restore 84 142 pd Instances and Wildcards;
#X text 118 176 TODO : dataspace & ramp;
