#N canvas 1349 276 450 300 10;
#X obj 393 89 j.view;
#X obj 237 113 j.remote freq @unit Hz;
#X floatatom 159 114 5 0 0 0 - - -, f 5;
#X floatatom 159 134 5 0 0 0 - - -, f 5;
#X obj 237 133 j.remote freq @unit midinote;
#X floatatom 159 174 5 0 0 0 - - -, f 5;
#X obj 237 173 j.remote gain @unit dB;
#X floatatom 159 194 5 0 0 0 - - -, f 5;
#X obj 237 193 j.remote gain @unit linear;
#X obj 393 65 inlet;
#X obj 393 111 outlet;
#X text 128 112 freq;
#X text 104 134 midinote;
#X text 193 113 Hz;
#X text 128 172 gain;
#X text 192 174 dB;
#X text 116 193 linear;
#X connect 0 0 10 0;
#X connect 1 0 2 0;
#X connect 2 0 1 0;
#X connect 3 0 4 0;
#X connect 4 0 3 0;
#X connect 5 0 6 0;
#X connect 6 0 5 0;
#X connect 7 0 8 0;
#X connect 8 0 7 0;
#X connect 9 0 0 0;
#X coords 0 -1 1 1 120 120 1 100 100;
